<?xml version="1.0" encoding="utf-8"?>
<!-- Generator: Adobe Illustrator 27.0.0, SVG Export Plug-In . SVG Version: 6.00 Build 0)  -->
<svg version="1.1" xmlns="http://www.w3.org/2000/svg" xmlns:xlink="http://www.w3.org/1999/xlink" x="0px" y="0px"
	 viewBox="0 0 792 612" style="enable-background:new 0 0 792 612;" xml:space="preserve">
<style type="text/css">
	.st0{fill:url(#SVGID_1_);}
	.st1{fill:#2A2770;}
	.st2{fill:#EA9382;}
	.st3{fill:#E2C498;}
	.st4{fill:#E65A29;}
	.st5{fill:#EC4428;}
	.st6{fill:#E8702C;}
	.st7{fill:#E88E76;}
	.st8{fill:none;}
	.st9{fill:#A60944;}
	.st10{fill:#607AB9;}
	.st11{fill:#B21F3F;}
	.st12{fill:#CD1E70;}
	.st13{fill:#B21F3F;stroke:#000000;stroke-width:8.5772;stroke-miterlimit:10;}
	.st14{fill:#ED126A;}
	.st15{opacity:0.39;fill:#FFFFFF;}
	.st16{fill:none;stroke:#000000;stroke-width:8.5772;stroke-miterlimit:10;}
	.st17{fill:#F15A29;}
	.st18{fill:#EB9A7F;}
	.st19{fill:#24B1B1;}
	.st20{fill:#DE1B5D;}
	.st21{fill:#102436;}
	.st22{fill:#EA9382;stroke:#E2C498;stroke-width:8.5772;stroke-miterlimit:10;}
	.st23{fill:#102436;stroke:#102436;stroke-width:2.1443;stroke-miterlimit:10;}
	.st24{fill:#AE214D;}
	.st25{fill:#AE214D;stroke:#AE214D;stroke-width:2.1443;stroke-miterlimit:10;}
	.st26{opacity:0.39;fill:#F1F2F2;stroke:#AE214D;stroke-width:2.1443;stroke-miterlimit:10;}
	.st27{fill:none;stroke:#AE214D;stroke-width:4.2886;stroke-miterlimit:10;}
	.st28{fill:#FFF200;stroke:#EC008C;stroke-width:6;stroke-miterlimit:10;}
	.st29{font-family:'LuckiestGuy-Regular';}
	.st30{font-size:142px;}
</style>
<g id="Layer_3">
	
		<radialGradient id="SVGID_1_" cx="395.2004" cy="310.133" r="353.8729" gradientTransform="matrix(1.002 0 0 1 3.216403e-03 -4.133)" gradientUnits="userSpaceOnUse">
		<stop  offset="0" style="stop-color:#EC008C"/>
		<stop  offset="1" style="stop-color:#662D91"/>
	</radialGradient>
	<rect x="-0.8" class="st0" width="793.6" height="612"/>
	<circle class="st1" cx="396" cy="306" r="234.5"/>
</g>
<g id="Layer_2">
	<g>
		<rect x="190.5" y="350.9" class="st2" width="78.7" height="44.3"/>
		<path class="st3" d="M247.3,367.6h-24.1c-37.9,0-68.6-30.7-68.6-68.6v-60.3c0-37.9,30.7-68.6,68.6-68.6h24.1
			c37.9,0,68.6,30.7,68.6,68.6V299C315.9,336.9,285.2,367.6,247.3,367.6z"/>
		<circle class="st4" cx="137.1" cy="249" r="23.4"/>
		<circle class="st4" cx="323.7" cy="249" r="22.8"/>
		<circle class="st5" cx="161.2" cy="156.5" r="34.7"/>
		<circle class="st5" cx="272.4" cy="121.8" r="22.1"/>
		<circle class="st5" cx="240.2" cy="166.1" r="35.9"/>
		<circle class="st6" cx="195.8" cy="170.5" r="35.6"/>
		<circle class="st4" cx="295.8" cy="164.9" r="35.4"/>
		<circle class="st3" cx="137.1" cy="280" r="22.2"/>
		<circle class="st7" cx="136.4" cy="279.4" r="10.5"/>
		<circle class="st8" cx="323.7" cy="280" r="10.5"/>
		<circle class="st3" cx="321.6" cy="281.3" r="21.3"/>
		<path class="st9" d="M227.4,345.9L227.4,345.9c-8.4,0-15.3-6.8-15.3-15.3v-5.5c0-8.4,6.8-15.3,15.3-15.3h0
			c8.4,0,15.3,6.8,15.3,15.3v5.5C242.7,339,235.9,345.9,227.4,345.9z"/>
		<path class="st5" d="M292.7,350.4l-1.1,1c-7.2,6.8-18.5,6.5-25.2-0.7l-36.2-38.2c-6.8-7.2-6.5-18.5,0.7-25.2l1.1-1
			c7.2-6.8,18.5-6.5,25.2,0.7l36.2,38.2C300.2,332.4,299.9,343.7,292.7,350.4z"/>
		<path class="st5" d="M171.1,343.8l2.1,2c6.9,6.5,17.8,6.2,24.3-0.6l32.6-34.4c6.5-6.9,6.2-17.8-0.6-24.3l-2.1-2
			c-6.9-6.5-17.8-6.2-24.3,0.6l-32.6,34.4C164,326.4,164.3,337.2,171.1,343.8z"/>
		<circle class="st8" cx="188.3" cy="254.3" r="3.2"/>
		<circle class="st8" cx="269.2" cy="254.3" r="3.2"/>
		<circle class="st6" cx="228.6" cy="357.8" r="3.9"/>
		<circle class="st7" cx="321.6" cy="281.3" r="10.8"/>
		<path class="st5" d="M313.9,292.9h-3.5c-5.6,0-10.1-4.5-10.1-10.1v-44.4c0-5.6,4.5-10.1,10.1-10.1h3.5c5.6,0,10.1,4.5,10.1,10.1
			v44.4C324,288.4,319.5,292.9,313.9,292.9z"/>
		<path class="st4" d="M147.3,292.9h-3.5c-5.6,0-10.1-4.5-10.1-10.1v-44.4c0-5.6,4.5-10.1,10.1-10.1h3.5c5.6,0,10.1,4.5,10.1,10.1
			v44.4C157.4,288.4,152.9,292.9,147.3,292.9z"/>
		<path class="st10" d="M278,421l-97.7-0.1c-7.8,0-12.6-5.7-12.6-12.8l0,0c0-7.1,6.3-12.9,14.1-12.9H278c7.8,0,14.1,5.8,14.1,12.9
			l0,0C292.1,415.2,285.8,421,278,421z"/>
		<path class="st11" d="M316.7,232.8H147c-8.4,0-15.2-6.8-15.2-15.2v-15.8c0-8.4,6.8-15.2,15.2-15.2h169.8c8.4,0,15.2,6.8,15.2,15.2
			v15.8C331.9,226,325.1,232.8,316.7,232.8z"/>
		<rect x="131.6" y="200" class="st12" width="199.7" height="19.4"/>
		<circle class="st13" cx="189.8" cy="251.5" r="0.3"/>
		<circle class="st13" cx="267.8" cy="251.4" r="0.3"/>
		<path class="st7" d="M229.8,309.8h-2.4c-9.6,0-17.4-7.8-17.4-17.4v-26c0-9.6,7.8-17.4,17.4-17.4h2.4c9.6,0,17.4,7.8,17.4,17.4v26
			C247.3,302,239.5,309.8,229.8,309.8z"/>
		<path class="st14" d="M233.7,344.7c5.1-1.9,8.4-7,8.9-12.4l0.1-0.9c0-0.1,0-0.2-0.1-0.3c-2.4-3.6-6.4-6.3-11.1-6.7l0,0
			c-8.4-0.8-15.9,5.3-16.8,13.7l-0.1,0.8c0,0.1,0,0.2,0.1,0.3C218.4,344.6,225.6,347.7,233.7,344.7z"/>
		<path class="st15" d="M161.9,252.6c0,16.8,13.7,30.5,30.5,30.5c9.7,0,18.3-4.6,23.9-11.7l-42.7-42.7
			C166.5,234.3,161.9,242.9,161.9,252.6z"/>
		<path class="st15" d="M188.7,220.8c-3.6,0.7-6.9,2.1-9.9,4l40.7,39.2c2-2.9,3.4-6.1,4.2-9.5L188.7,220.8z"/>
		<path class="st15" d="M239.1,252.2c0,16.8,13.7,30.5,30.5,30.5c9.7,0,18.3-4.6,23.9-11.7l-42.7-42.7
			C243.8,233.9,239.1,242.5,239.1,252.2z"/>
		<path class="st15" d="M266.7,220.6c-3.6,0.7-6.9,2.1-9.9,4l40.7,39.2c2-2.9,3.4-6.1,4.2-9.5L266.7,220.6z"/>
		<circle class="st16" cx="190.8" cy="253.2" r="33.8"/>
		<circle class="st16" cx="269.1" cy="253.2" r="33.8"/>
		<rect x="224.8" y="251.9" class="st16" width="10.5" height="2.6"/>
		<ellipse class="st17" cx="218.7" cy="110.2" rx="44.1" ry="44.1"/>
		<rect x="439.8" y="246.9" class="st5" width="186.8" height="167.7"/>
		<rect x="502.7" y="364.4" class="st18" width="62.9" height="34.9"/>
		<rect x="468.3" y="389" class="st19" width="129.8" height="25.6"/>
		<path class="st3" d="M533.2,380.8L533.2,380.8c-35.8,0-64.9-29.1-64.9-64.9v-59c0-35.8,29.1-64.9,64.9-64.9h0
			c35.8,0,64.9,29.1,64.9,64.9v59C598.1,351.8,569.1,380.8,533.2,380.8z"/>
		<rect x="451" y="222.2" class="st5" width="157.7" height="23.5"/>
		<path class="st20" d="M548.2,344.5c0,7.7-6.3,14-14,14c-7.7,0-14-6.3-14-14c0-10.6,6.3-5.3,14-5.3
			C542,339.2,548.2,334.3,548.2,344.5z"/>
		<circle class="st21" cx="495.5" cy="298" r="6.1"/>
		<circle class="st21" cx="575" cy="298.3" r="6.1"/>
		<circle class="st22" cx="449.6" cy="292.2" r="14.7"/>
		<rect x="447.6" y="252.4" class="st5" width="20.7" height="110.1"/>
		<path class="st23" d="M631.1,223.4v-31.5c0-52.3-42.4-94.7-94.6-94.7H532c-52.3,0-94.7,42.4-94.7,94.7v31.5H631.1z"/>
		<rect x="430.8" y="222.2" class="st20" width="206.9" height="21.7"/>
		<rect x="465.3" y="255.4" class="st5" width="137.8" height="22.6"/>
		<path class="st24" d="M544.2,348.4h-19.5c-1,0-1.8-0.8-1.8-1.8l0,0c0-1,0.8-1.8,1.8-1.8h19.5c1,0,1.8,0.8,1.8,1.8l0,0
			C546,347.6,545.2,348.4,544.2,348.4z"/>
		<circle class="st18" cx="529.8" cy="329.7" r="2.1"/>
		<circle class="st18" cx="539.6" cy="329.7" r="2.1"/>
		<polygon class="st3" points="556.1,260.4 550.1,279.2 562.1,279.2 		"/>
		<circle class="st22" cx="621.6" cy="291.9" r="14.7"/>
		<polygon class="st3" points="575,281.6 581,281.6 578,267.8 		"/>
		<polygon class="st5" points="621.6,361.9 597.8,363.3 597.8,256.8 621.6,255.4 		"/>
		<rect x="528.8" y="295.7" class="st25" width="9.2" height="8.1"/>
		<path class="st26" d="M612.9,262.5l-20-0.5l-51.7,53.1c3.5,9,10.4,16.2,19.2,19.9l52.5-53.9V262.5z"/>
		<path class="st26" d="M614.1,298.6v-1.2l-39.9,39.3c0.1,0,0.1,0,0.2,0C596.3,336.7,614.1,319.2,614.1,298.6z"/>
		<path class="st26" d="M498.7,262.9l-43.9,0.9V297c0,4.3,1,8.4,2.6,12.2L507,264C504.3,263.4,501.6,262.9,498.7,262.9z"/>
		<path class="st26" d="M518.5,274l-53.8,51.4c3.2,3.3,6.9,6,11.2,8.1l51-48.7C525,280.6,522.1,277,518.5,274z"/>
		<path class="st27" d="M574.8,336.7L574.8,336.7c-19.2,0-34.7-15.5-34.7-34.7v-7.3c0-17.7,14.3-32,32-32l42,1v34.7
			C614.1,319.1,596.5,336.7,574.8,336.7z"/>
		<path class="st27" d="M494.1,336.7L494.1,336.7c19.2,0,34.7-15.5,34.7-34.7v-7.3c0-17.7-14.3-32-32-32l-42,1v34.7
			C454.8,319.1,472.4,336.7,494.1,336.7z"/>
		<path class="st21" d="M674.3,258.2H385.2c-2.2,0-3.9-1.8-3.9-3.9v-6.5c0-2.2,1.8-3.9,3.9-3.9h289.1c2.2,0,3.9,1.8,3.9,3.9v6.5
			C678.3,256.5,676.5,258.2,674.3,258.2z"/>
	</g>
	<rect x="-75.1" y="714" class="st8" width="216.1" height="63.4"/>
	<rect x="-385.8" y="677.7" class="st8" width="40.5" height="1"/>
	<rect x="114.7" y="435.2" class="st8" width="567.8" height="151.3"/>
	<text transform="matrix(1 0 0 1 114.7104 536.0084)" class="st28 st29 st30">AVATARS</text>
</g>
</svg>
