<?xml version="1.0" encoding="UTF-8"?>
<svg xmlns="http://www.w3.org/2000/svg" viewBox="0 0 5860 401">
  <defs>
    <style>
      .cls-1 {
        fill: #0071bc;
      }

      .cls-2 {
        fill: #f15a24;
      }

      .cls-3 {
        fill: #f7931e;
      }

      .cls-4 {
        fill: #fff;
      }

      .cls-5 {
        fill: #d9e021;
      }

      .cls-6 {
        fill: #29abe2;
      }

      .cls-7 {
        fill: none;
        stroke: #2e3192;
        stroke-linecap: round;
        stroke-miterlimit: 10;
        stroke-width: 7px;
      }
    </style>
  </defs>
  <g id="Background">
    <rect y="1" width="400" height="400"/>
    <rect x="420" width="400" height="400"/>
    <rect x="1260" width="400" height="400"/>
    <rect x="840" y="1" width="400" height="400"/>
    <rect x="2520" width="400" height="400"/>
    <rect x="2100" y="1" width="400" height="400"/>
    <rect x="1679" y="1" width="400" height="400"/>
    <rect x="3780" y="1" width="400" height="400"/>
    <rect x="3360" width="400" height="400"/>
    <rect x="2940" width="400" height="400"/>
    <rect x="4200" width="400" height="400"/>
    <rect x="4620" y="1" width="400" height="400"/>
    <rect x="5040" width="400" height="400"/>
    <rect x="5460" width="400" height="400"/>
  </g>
  <g id="Bird">
    <path class="cls-5" d="M1538.53,224.3l-16.9,16.38,32.16,34.18c9.04,9.61,24.14,10.21,33.57,1.34l-48.84-51.91Z"/>
    <path class="cls-5" d="M1536.33,242.83c-18.82-18.6-19-48.94-.39-67.76,18.6-18.82,48.94-19,67.76-.39"/>
    <path class="cls-2" d="M130.28,214.03c-3.62-2.99-8.98-2.47-11.96,1.16l-23.65,28.72c-3.02-2.3-6.57-3.98-10.47-4.77-4.6-.95-9.09,2.02-10.03,6.62-.94,4.6,2.02,9.09,6.62,10.03,4.19,.86,7.22,4.59,7.22,8.87,0,5-4.06,9.06-9.06,9.06-2.99,0-5.79-1.48-7.48-3.95-2.65-3.87-7.95-4.86-11.82-2.2-3.87,2.65-4.86,7.95-2.2,11.82,4.87,7.1,12.9,11.33,21.5,11.33,14.37,0,26.06-11.69,26.06-26.06,0-1.97-.25-3.89-.67-5.76l27.1-32.91c2.98-3.62,2.47-8.98-1.16-11.96Z"/>
    <path class="cls-3" d="M118.9,211.94c-3.62-2.99-8.98-2.47-11.96,1.16l-23.65,28.72c-3.02-2.3-6.57-3.98-10.47-4.77-4.6-.95-9.09,2.02-10.03,6.62-.94,4.6,2.02,9.09,6.62,10.03,4.19,.86,7.22,4.59,7.22,8.87,0,5-4.06,9.06-9.06,9.06-2.99,0-5.79-1.48-7.48-3.95-2.65-3.87-7.95-4.86-11.82-2.2-3.87,2.65-4.86,7.95-2.2,11.82,4.87,7.1,12.9,11.33,21.5,11.33,14.37,0,26.06-11.69,26.06-26.06,0-1.97-.25-3.89-.67-5.76l27.1-32.91c2.98-3.62,2.47-8.98-1.16-11.96Z"/>
    <path class="cls-5" d="M270,177h0c40.84,0,74,33.16,74,74h-74v-74h0Z"/>
    <path class="cls-1" d="M92,177h178v74h-104c-40.84,0-74-33.16-74-74h0Z"/>
    <path class="cls-6" d="M189,210.19c0-5.07-4.11-9.19-9.19-9.19h-37.62c-5.07,0-9.19,4.11-9.19,9.19v9.62c0,.83,.12,1.63,.33,2.4-.21,.78-.33,1.6-.33,2.45v81.68c0,5.34,4.33,9.66,9.66,9.66h2.34v17.47c0,5.82,4.71,10.53,10.53,10.53h2.94c2.03,0,3.92-.59,5.53-1.58v2.09c0,6.35,5.15,11.5,11.5,11.5h2.01c6.35,0,11.5-5.15,11.5-11.5v-120.01c0-.85-.1-1.68-.28-2.48,.17-.71,.28-1.44,.28-2.2v-9.62Z"/>
    <g>
      <circle class="cls-4" cx="227" cy="207" r="13"/>
      <circle class="cls-4" cx="246" cy="207" r="13"/>
      <circle cx="230.5" cy="206.5" r="6.5"/>
      <circle cx="242.5" cy="206.5" r="6.5"/>
    </g>
    <path class="cls-1" d="M95.98,184.98c0-.16,.02-.32,.02-.48,0-.34-.02-.67-.06-1.01,.02-2.74-1.13-5.48-3.38-7.37l-13.03-10.94c-4-3.36-10.02-2.83-13.38,1.17-2.08,2.48-2.67,5.73-1.87,8.65h-2.78c-5.22,0-9.5,4.27-9.5,9.5s4.28,9.5,9.5,9.5h3.11c-1.13,3.08-.65,6.66,1.58,9.35,3.33,4.02,9.35,4.59,13.38,1.25l13.1-10.85c2.66-2.2,3.8-5.58,3.31-8.78Z"/>
    <path class="cls-2" d="M969.93,224.42c-3.62-2.99-8.98-2.47-11.96,1.16l-23.65,28.72c-3.02-2.3-6.57-3.98-10.47-4.77-4.6-.95-9.09,2.02-10.03,6.62-.94,4.6,2.02,9.09,6.62,10.03,4.19,.86,7.22,4.59,7.22,8.87,0,5-4.06,9.06-9.06,9.06-2.99,0-5.79-1.48-7.48-3.95-2.65-3.87-7.95-4.86-11.82-2.2-3.87,2.65-4.86,7.95-2.2,11.82,4.87,7.1,12.9,11.33,21.5,11.33,14.37,0,26.06-11.69,26.06-26.06,0-1.97-.25-3.89-.67-5.76l27.1-32.91c2.98-3.62,2.47-8.98-1.16-11.96Z"/>
    <path class="cls-3" d="M958.56,222.33c-3.62-2.99-8.98-2.47-11.96,1.16l-23.65,28.72c-3.02-2.3-6.57-3.98-10.47-4.77-4.6-.95-9.09,2.02-10.03,6.62-.94,4.6,2.02,9.09,6.62,10.03,4.19,.86,7.22,4.59,7.22,8.87,0,5-4.06,9.06-9.06,9.06-2.99,0-5.79-1.48-7.48-3.95-2.65-3.87-7.95-4.86-11.82-2.2-3.87,2.65-4.86,7.95-2.2,11.82,4.87,7.1,12.9,11.33,21.5,11.33,14.37,0,26.06-11.69,26.06-26.06,0-1.97-.25-3.89-.67-5.76l27.1-32.91c2.98-3.62,2.47-8.98-1.16-11.96Z"/>
    <path class="cls-5" d="M1109.66,187.39h0c40.84,0,74,33.16,74,74h-74v-74h0Z"/>
    <path class="cls-1" d="M931.66,187.39h178v74h-104c-40.84,0-74-33.16-74-74h0Z"/>
    <g>
      <circle class="cls-4" cx="1066.66" cy="217.39" r="13"/>
      <circle class="cls-4" cx="1085.66" cy="217.39" r="13"/>
      <circle cx="1070.16" cy="216.89" r="6.5"/>
      <circle cx="1082.16" cy="216.89" r="6.5"/>
    </g>
    <path class="cls-1" d="M935.63,195.37c0-.16,.02-.32,.02-.48,0-.34-.02-.67-.06-1.01,.02-2.74-1.13-5.48-3.38-7.37l-13.03-10.94c-4-3.36-10.02-2.83-13.38,1.17-2.08,2.48-2.67,5.73-1.87,8.65h-2.78c-5.22,0-9.5,4.27-9.5,9.5s4.28,9.5,9.5,9.5h3.11c-1.13,3.08-.65,6.66,1.58,9.35,3.33,4.02,9.35,4.59,13.38,1.25l13.1-10.85c2.66-2.2,3.8-5.58,3.31-8.78Z"/>
    <path class="cls-6" d="M1019.83,131h-4.65c-5.62,0-10.17,4.55-10.17,10.17v2.93c-1.32-.7-2.82-1.1-4.42-1.1h-5.16c-5.2,0-9.42,4.22-9.42,9.42v18.58h-3.84c-4.51,0-8.16,3.65-8.16,8.16v55.69s0,0,0,0v2.97c0,5.07,4.11,9.19,9.19,9.19h37.62c5.07,0,9.19-4.11,9.19-9.19v-96.64c0-5.62-4.55-10.17-10.17-10.17Z"/>
    <path class="cls-2" d="M1392.88,216.12c-3.62-2.99-8.98-2.47-11.96,1.16l-23.65,28.72c-3.02-2.3-6.57-3.98-10.47-4.77-4.6-.95-9.09,2.02-10.03,6.62-.94,4.6,2.02,9.09,6.62,10.03,4.19,.86,7.22,4.59,7.22,8.87,0,5-4.06,9.06-9.06,9.06-2.99,0-5.79-1.48-7.48-3.95-2.65-3.87-7.95-4.86-11.82-2.2-3.87,2.65-4.86,7.95-2.2,11.82,4.87,7.1,12.9,11.33,21.5,11.33,14.37,0,26.06-11.69,26.06-26.06,0-1.97-.25-3.89-.67-5.76l27.1-32.91c2.98-3.62,2.47-8.98-1.16-11.96Z"/>
    <path class="cls-3" d="M1381.51,214.03c-3.62-2.99-8.98-2.47-11.96,1.16l-23.65,28.72c-3.02-2.3-6.57-3.98-10.47-4.77-4.6-.95-9.09,2.02-10.03,6.62-.94,4.6,2.02,9.09,6.62,10.03,4.19,.86,7.22,4.59,7.22,8.87,0,5-4.06,9.06-9.06,9.06-2.99,0-5.79-1.48-7.48-3.95-2.65-3.87-7.95-4.86-11.82-2.2-3.87,2.65-4.86,7.95-2.2,11.82,4.87,7.1,12.9,11.33,21.5,11.33,14.37,0,26.06-11.69,26.06-26.06,0-1.97-.25-3.89-.67-5.76l27.1-32.91c2.98-3.62,2.47-8.98-1.16-11.96Z"/>
    <path class="cls-1" d="M1354.61,179.09h178v74h-104c-40.84,0-74-33.16-74-74h0Z"/>
    <path class="cls-6" d="M1451.61,212.28c0-5.07-4.11-9.19-9.19-9.19h-37.62c-5.07,0-9.19,4.11-9.19,9.19v9.62c0,.83,.12,1.63,.33,2.4-.21,.78-.33,1.6-.33,2.45v81.68c0,5.34,4.33,9.66,9.66,9.66h2.34v17.47c0,5.82,4.71,10.53,10.53,10.53h2.94c2.03,0,3.92-.59,5.53-1.58v2.09c0,6.35,5.15,11.5,11.5,11.5h2.01c6.35,0,11.5-5.15,11.5-11.5v-120.01c0-.85-.1-1.68-.28-2.48,.17-.71,.28-1.44,.28-2.2v-9.62Z"/>
    <g>
      <circle class="cls-4" cx="1489.61" cy="209.09" r="13"/>
      <circle class="cls-4" cx="1508.61" cy="209.09" r="13"/>
      <circle cx="1493.11" cy="208.59" r="6.5"/>
      <circle cx="1505.11" cy="208.59" r="6.5"/>
    </g>
    <path class="cls-1" d="M1358.58,187.07c0-.16,.02-.32,.02-.48,0-.34-.02-.67-.06-1.01,.02-2.74-1.13-5.48-3.38-7.37l-13.03-10.94c-4-3.36-10.02-2.83-13.38,1.17-2.08,2.48-2.67,5.73-1.87,8.65h-2.78c-5.22,0-9.5,4.27-9.5,9.5s4.28,9.5,9.5,9.5h3.11c-1.13,3.08-.65,6.66,1.58,9.35,3.33,4.02,9.35,4.59,13.38,1.25l13.1-10.85c2.66-2.2,3.8-5.58,3.31-8.78Z"/>
    <path class="cls-5" d="M1955.49,220.53l-16.9,16.38,32.16,34.18c9.04,9.61,24.14,10.21,33.57,1.34l-48.84-51.91Z"/>
    <path class="cls-5" d="M1953.29,239.06c-18.82-18.6-19-48.94-.39-67.76,18.6-18.82,48.94-19,67.76-.39"/>
    <path class="cls-2" d="M1809.85,212.35c-3.62-2.99-8.98-2.47-11.96,1.16l-23.65,28.72c-3.02-2.3-6.57-3.98-10.47-4.77-4.6-.95-9.09,2.02-10.03,6.62-.94,4.6,2.02,9.09,6.62,10.03,4.19,.86,7.22,4.59,7.22,8.87,0,5-4.06,9.06-9.06,9.06-2.99,0-5.79-1.48-7.48-3.95-2.65-3.87-7.95-4.86-11.82-2.2-3.87,2.65-4.86,7.95-2.2,11.82,4.87,7.1,12.9,11.33,21.5,11.33,14.37,0,26.06-11.69,26.06-26.06,0-1.97-.25-3.89-.67-5.76l27.1-32.91c2.98-3.62,2.47-8.98-1.16-11.96Z"/>
    <path class="cls-3" d="M1798.47,210.26c-3.62-2.99-8.98-2.47-11.96,1.16l-23.65,28.72c-3.02-2.3-6.57-3.98-10.47-4.77-4.6-.95-9.09,2.02-10.03,6.62-.94,4.6,2.02,9.09,6.62,10.03,4.19,.86,7.22,4.59,7.22,8.87,0,5-4.06,9.06-9.06,9.06-2.99,0-5.79-1.48-7.48-3.95-2.65-3.87-7.95-4.86-11.82-2.2-3.87,2.65-4.86,7.95-2.2,11.82,4.87,7.1,12.9,11.33,21.5,11.33,14.37,0,26.06-11.69,26.06-26.06,0-1.97-.25-3.89-.67-5.76l27.1-32.91c2.98-3.62,2.47-8.98-1.16-11.96Z"/>
    <path class="cls-1" d="M1771.57,175.32h178v74h-104c-40.84,0-74-33.16-74-74h0Z"/>
    <path class="cls-6" d="M1869,191.81c0,5.07-4.11,9.19-9.19,9.19h-37.62c-5.07,0-9.19-4.11-9.19-9.19v-9.62c0-.83,.12-1.63,.33-2.4-.21-.78-.33-1.6-.33-2.45V95.66c0-5.34,4.33-9.66,9.66-9.66h2.34s0-17.47,0-17.47c0-5.82,4.71-10.53,10.53-10.53h2.94c2.03,0,3.92,.59,5.53,1.58v-2.09c0-6.35,5.15-11.5,11.5-11.5h2.01c6.35,0,11.5,5.15,11.5,11.5v120.01c0,.85-.1,1.68-.28,2.48,.17,.71,.28,1.44,.28,2.2v9.62Z"/>
    <g>
      <circle class="cls-4" cx="1906.57" cy="205.32" r="13"/>
      <circle class="cls-4" cx="1925.57" cy="205.32" r="13"/>
      <circle cx="1910.07" cy="204.82" r="6.5"/>
      <circle cx="1922.07" cy="204.82" r="6.5"/>
    </g>
    <path class="cls-1" d="M1775.55,183.3c0-.16,.02-.32,.02-.48,0-.34-.02-.67-.06-1.01,.02-2.74-1.13-5.48-3.38-7.37l-13.03-10.94c-4-3.36-10.02-2.83-13.38,1.17-2.08,2.48-2.67,5.73-1.87,8.65h-2.78c-5.22,0-9.5,4.27-9.5,9.5s4.28,9.5,9.5,9.5h3.11c-1.13,3.08-.65,6.66,1.58,9.35,3.33,4.02,9.35,4.59,13.38,1.25l13.1-10.85c2.66-2.2,3.8-5.58,3.31-8.78Z"/>
    <path class="cls-2" d="M2232,224.59c-3.62-2.99-8.98-2.47-11.96,1.16l-23.65,28.72c-3.02-2.3-6.57-3.98-10.47-4.77-4.6-.95-9.09,2.02-10.03,6.62-.94,4.6,2.02,9.09,6.62,10.03,4.19,.86,7.22,4.59,7.22,8.87,0,5-4.06,9.06-9.06,9.06-2.99,0-5.79-1.48-7.48-3.95-2.65-3.87-7.95-4.86-11.82-2.2-3.87,2.65-4.86,7.95-2.2,11.82,4.87,7.1,12.9,11.33,21.5,11.33,14.37,0,26.06-11.69,26.06-26.06,0-1.97-.25-3.89-.67-5.76l27.1-32.91c2.98-3.62,2.47-8.98-1.16-11.96Z"/>
    <path class="cls-3" d="M2220.62,222.5c-3.62-2.99-8.98-2.47-11.96,1.16l-23.65,28.72c-3.02-2.3-6.57-3.98-10.47-4.77-4.6-.95-9.09,2.02-10.03,6.62-.94,4.6,2.02,9.09,6.62,10.03,4.19,.86,7.22,4.59,7.22,8.87,0,5-4.06,9.06-9.06,9.06-2.99,0-5.79-1.48-7.48-3.95-2.65-3.87-7.95-4.86-11.82-2.2-3.87,2.65-4.86,7.95-2.2,11.82,4.87,7.1,12.9,11.33,21.5,11.33,14.37,0,26.06-11.69,26.06-26.06,0-1.97-.25-3.89-.67-5.76l27.1-32.91c2.98-3.62,2.47-8.98-1.16-11.96Z"/>
    <path class="cls-5" d="M2371.72,187.56h0c40.84,0,74,33.16,74,74h-74v-74h0Z"/>
    <path class="cls-1" d="M2193.72,187.56h178v74h-104c-40.84,0-74-33.16-74-74h0Z"/>
    <g>
      <circle class="cls-4" cx="2328.72" cy="217.56" r="13"/>
      <circle class="cls-4" cx="2347.72" cy="217.56" r="13"/>
      <circle cx="2332.22" cy="217.06" r="6.5"/>
      <circle cx="2344.22" cy="217.06" r="6.5"/>
    </g>
    <path class="cls-1" d="M2197.69,195.54c0-.16,.02-.32,.02-.48,0-.34-.02-.67-.06-1.01,.02-2.74-1.13-5.48-3.38-7.37l-13.03-10.94c-4-3.36-10.02-2.83-13.38,1.17-2.08,2.48-2.67,5.73-1.87,8.65h-2.78c-5.22,0-9.5,4.27-9.5,9.5s4.28,9.5,9.5,9.5h3.11c-1.13,3.08-.65,6.66,1.58,9.35,3.33,4.02,9.35,4.59,13.38,1.25l13.1-10.85c2.66-2.2,3.8-5.58,3.31-8.78Z"/>
    <path class="cls-6" d="M2281.89,131.17h-4.65c-5.62,0-10.17,4.55-10.17,10.17v2.93c-1.32-.7-2.82-1.1-4.42-1.1h-5.16c-5.2,0-9.42,4.22-9.42,9.42v18.58h-3.84c-4.51,0-8.16,3.65-8.16,8.16v55.69s0,0,0,0v2.97c0,5.07,4.11,9.19,9.19,9.19h37.62c5.07,0,9.19-4.11,9.19-9.19v-96.64c0-5.62-4.55-10.17-10.17-10.17Z"/>
    <path class="cls-5" d="M2796.89,221.95l-16.9,16.38,32.16,34.18c9.04,9.61,24.14,10.21,33.57,1.34l-48.84-51.91Z"/>
    <path class="cls-5" d="M2794.69,240.48c-18.82-18.6-19-48.94-.39-67.76,18.6-18.82,48.94-19,67.76-.39"/>
    <path class="cls-2" d="M2651.24,213.77c-3.62-2.99-8.98-2.47-11.96,1.16l-23.65,28.72c-3.02-2.3-6.57-3.98-10.47-4.77-4.6-.95-9.09,2.02-10.03,6.62-.94,4.6,2.02,9.09,6.62,10.03,4.19,.86,7.22,4.59,7.22,8.87,0,5-4.06,9.06-9.06,9.06-2.99,0-5.79-1.48-7.48-3.95-2.65-3.87-7.95-4.86-11.82-2.2-3.87,2.65-4.86,7.95-2.2,11.82,4.87,7.1,12.9,11.33,21.5,11.33,14.37,0,26.06-11.69,26.06-26.06,0-1.97-.25-3.89-.67-5.76l27.1-32.91c2.98-3.62,2.47-8.98-1.16-11.96Z"/>
    <path class="cls-3" d="M2639.87,211.68c-3.62-2.99-8.98-2.47-11.96,1.16l-23.65,28.72c-3.02-2.3-6.57-3.98-10.47-4.77-4.6-.95-9.09,2.02-10.03,6.62-.94,4.6,2.02,9.09,6.62,10.03,4.19,.86,7.22,4.59,7.22,8.87,0,5-4.06,9.06-9.06,9.06-2.99,0-5.79-1.48-7.48-3.95-2.65-3.87-7.95-4.86-11.82-2.2-3.87,2.65-4.86,7.95-2.2,11.82,4.87,7.1,12.9,11.33,21.5,11.33,14.37,0,26.06-11.69,26.06-26.06,0-1.97-.25-3.89-.67-5.76l27.1-32.91c2.98-3.62,2.47-8.98-1.16-11.96Z"/>
    <path class="cls-1" d="M2612.96,176.74h178v74h-104c-40.84,0-74-33.16-74-74h0Z"/>
    <path class="cls-6" d="M2709.96,209.93c0-5.07-4.11-9.19-9.19-9.19h-37.62c-5.07,0-9.19,4.11-9.19,9.19v9.62c0,.83,.12,1.63,.33,2.4-.21,.78-.33,1.6-.33,2.45v81.68c0,5.34,4.33,9.66,9.66,9.66h2.34v17.47c0,5.82,4.71,10.53,10.53,10.53h2.94c2.03,0,3.92-.59,5.53-1.58v2.09c0,6.35,5.15,11.5,11.5,11.5h2.01c6.35,0,11.5-5.15,11.5-11.5v-120.01c0-.85-.1-1.68-.28-2.48,.17-.71,.28-1.44,.28-2.2v-9.62Z"/>
    <g>
      <circle class="cls-4" cx="2747.96" cy="206.74" r="13"/>
      <circle class="cls-4" cx="2766.96" cy="206.74" r="13"/>
      <circle cx="2751.46" cy="206.24" r="6.5"/>
      <circle cx="2763.46" cy="206.24" r="6.5"/>
    </g>
    <path class="cls-1" d="M2616.94,184.72c0-.16,.02-.32,.02-.48,0-.34-.02-.67-.06-1.01,.02-2.74-1.13-5.48-3.38-7.37l-13.03-10.94c-4-3.36-10.02-2.83-13.38,1.17-2.08,2.48-2.67,5.73-1.87,8.65h-2.78c-5.22,0-9.5,4.27-9.5,9.5s4.28,9.5,9.5,9.5h3.11c-1.13,3.08-.65,6.66,1.58,9.35,3.33,4.02,9.35,4.59,13.38,1.25l13.1-10.85c2.66-2.2,3.8-5.58,3.31-8.78Z"/>
    <path class="cls-5" d="M3215.6,219.57l-16.9,16.38,32.16,34.18c9.04,9.61,24.14,10.21,33.57,1.34l-48.84-51.91Z"/>
    <path class="cls-5" d="M3213.4,238.1c-18.82-18.6-19-48.94-.39-67.76,18.6-18.82,48.94-19,67.76-.39"/>
    <path class="cls-2" d="M3069.96,211.4c-3.62-2.99-8.98-2.47-11.96,1.16l-23.65,28.72c-3.02-2.3-6.57-3.98-10.47-4.77-4.6-.95-9.09,2.02-10.03,6.62-.94,4.6,2.02,9.09,6.62,10.03,4.19,.86,7.22,4.59,7.22,8.87,0,5-4.06,9.06-9.06,9.06-2.99,0-5.79-1.48-7.48-3.95-2.65-3.87-7.95-4.86-11.82-2.2-3.87,2.65-4.86,7.95-2.2,11.82,4.87,7.1,12.9,11.33,21.5,11.33,14.37,0,26.06-11.69,26.06-26.06,0-1.97-.25-3.89-.67-5.76l27.1-32.91c2.98-3.62,2.47-8.98-1.16-11.96Z"/>
    <path class="cls-3" d="M3058.58,209.31c-3.62-2.99-8.98-2.47-11.96,1.16l-23.65,28.72c-3.02-2.3-6.57-3.98-10.47-4.77-4.6-.95-9.09,2.02-10.03,6.62-.94,4.6,2.02,9.09,6.62,10.03,4.19,.86,7.22,4.59,7.22,8.87,0,5-4.06,9.06-9.06,9.06-2.99,0-5.79-1.48-7.48-3.95-2.65-3.87-7.95-4.86-11.82-2.2-3.87,2.65-4.86,7.95-2.2,11.82,4.87,7.1,12.9,11.33,21.5,11.33,14.37,0,26.06-11.69,26.06-26.06,0-1.97-.25-3.89-.67-5.76l27.1-32.91c2.98-3.62,2.47-8.98-1.16-11.96Z"/>
    <path class="cls-1" d="M3031.68,174.37h178v74h-104c-40.84,0-74-33.16-74-74h0Z"/>
    <path class="cls-6" d="M3131,183.81c0,5.07-4.11,9.19-9.19,9.19h-37.62c-5.07,0-9.19-4.11-9.19-9.19v-9.62c0-.83,.12-1.63,.33-2.4-.21-.78-.33-1.6-.33-2.45V87.66c0-5.34,4.33-9.66,9.66-9.66h2.34s0-17.47,0-17.47c0-5.82,4.71-10.53,10.53-10.53h2.94c2.03,0,3.92,.59,5.53,1.58v-2.09c0-6.35,5.15-11.5,11.5-11.5h2.01c6.35,0,11.5,5.15,11.5,11.5v120.01c0,.85-.1,1.68-.28,2.48,.17,.71,.28,1.44,.28,2.2v9.62Z"/>
    <g>
      <circle class="cls-4" cx="3166.68" cy="204.37" r="13"/>
      <circle class="cls-4" cx="3185.68" cy="204.37" r="13"/>
      <circle cx="3170.18" cy="203.87" r="6.5"/>
      <circle cx="3182.18" cy="203.87" r="6.5"/>
    </g>
    <path class="cls-1" d="M3035.65,182.35c0-.16,.02-.32,.02-.48,0-.34-.02-.67-.06-1.01,.02-2.74-1.13-5.48-3.38-7.37l-13.03-10.94c-4-3.36-10.02-2.83-13.38,1.17-2.08,2.48-2.67,5.73-1.87,8.65h-2.78c-5.22,0-9.5,4.27-9.5,9.5s4.28,9.5,9.5,9.5h3.11c-1.13,3.08-.65,6.66,1.58,9.35,3.33,4.02,9.35,4.59,13.38,1.25l13.1-10.85c2.66-2.2,3.8-5.58,3.31-8.78Z"/>
    <path class="cls-2" d="M3489.38,218.63c-3.62-2.99-8.98-2.47-11.96,1.16l-23.65,28.72c-3.02-2.3-6.57-3.98-10.47-4.77-4.6-.95-9.09,2.02-10.03,6.62-.94,4.6,2.02,9.09,6.62,10.03,4.19,.86,7.22,4.59,7.22,8.87,0,5-4.06,9.06-9.06,9.06-2.99,0-5.79-1.48-7.48-3.95-2.65-3.87-7.95-4.86-11.82-2.2-3.87,2.65-4.86,7.95-2.2,11.82,4.87,7.1,12.9,11.33,21.5,11.33,14.37,0,26.06-11.69,26.06-26.06,0-1.97-.25-3.89-.67-5.76l27.1-32.91c2.98-3.62,2.47-8.98-1.16-11.96Z"/>
    <path class="cls-3" d="M3478.01,216.54c-3.62-2.99-8.98-2.47-11.96,1.16l-23.65,28.72c-3.02-2.3-6.57-3.98-10.47-4.77-4.6-.95-9.09,2.02-10.03,6.62-.94,4.6,2.02,9.09,6.62,10.03,4.19,.86,7.22,4.59,7.22,8.87,0,5-4.06,9.06-9.06,9.06-2.99,0-5.79-1.48-7.48-3.95-2.65-3.87-7.95-4.86-11.82-2.2-3.87,2.65-4.86,7.95-2.2,11.82,4.87,7.1,12.9,11.33,21.5,11.33,14.37,0,26.06-11.69,26.06-26.06,0-1.97-.25-3.89-.67-5.76l27.1-32.91c2.98-3.62,2.47-8.98-1.16-11.96Z"/>
    <path class="cls-5" d="M3629.1,181.6h0c40.84,0,74,33.16,74,74h-74v-74h0Z"/>
    <path class="cls-1" d="M3451.1,181.6h178v74h-104c-40.84,0-74-33.16-74-74h0Z"/>
    <path class="cls-6" d="M3548.1,214.79c0-5.07-4.11-9.19-9.19-9.19h-37.62c-5.07,0-9.19,4.11-9.19,9.19v9.62c0,.83,.12,1.63,.33,2.4-.21,.78-.33,1.6-.33,2.45v81.68c0,5.34,4.33,9.66,9.66,9.66h2.34v17.47c0,5.82,4.71,10.53,10.53,10.53h2.94c2.03,0,3.92-.59,5.53-1.58v2.09c0,6.35,5.15,11.5,11.5,11.5h2.01c6.35,0,11.5-5.15,11.5-11.5v-120.01c0-.85-.1-1.68-.28-2.48,.17-.71,.28-1.44,.28-2.2v-9.62Z"/>
    <g>
      <circle class="cls-4" cx="3586.1" cy="211.6" r="13"/>
      <circle class="cls-4" cx="3605.1" cy="211.6" r="13"/>
      <circle cx="3589.6" cy="211.1" r="6.5"/>
      <circle cx="3601.6" cy="211.1" r="6.5"/>
    </g>
    <path class="cls-1" d="M3455.08,189.58c0-.16,.02-.32,.02-.48,0-.34-.02-.67-.06-1.01,.02-2.74-1.13-5.48-3.38-7.37l-13.03-10.94c-4-3.36-10.02-2.83-13.38,1.17-2.08,2.48-2.67,5.73-1.87,8.65h-2.78c-5.22,0-9.5,4.27-9.5,9.5s4.28,9.5,9.5,9.5h3.11c-1.13,3.08-.65,6.66,1.58,9.35,3.33,4.02,9.35,4.59,13.38,1.25l13.1-10.85c2.66-2.2,3.8-5.58,3.31-8.78Z"/>
    <path class="cls-2" d="M548.64,211.91c-3.62-2.99-8.98-2.47-11.96,1.16l-23.65,28.72c-3.02-2.3-6.57-3.98-10.47-4.77-4.6-.95-9.09,2.02-10.03,6.62-.94,4.6,2.02,9.09,6.62,10.03,4.19,.86,7.22,4.59,7.22,8.87,0,5-4.06,9.06-9.06,9.06-2.99,0-5.79-1.48-7.48-3.95-2.65-3.87-7.95-4.86-11.82-2.2-3.87,2.65-4.86,7.95-2.2,11.82,4.87,7.1,12.9,11.33,21.5,11.33,14.37,0,26.06-11.69,26.06-26.06,0-1.97-.25-3.89-.67-5.76l27.1-32.91c2.98-3.62,2.47-8.98-1.16-11.96Z"/>
    <path class="cls-3" d="M537.27,209.82c-3.62-2.99-8.98-2.47-11.96,1.16l-23.65,28.72c-3.02-2.3-6.57-3.98-10.47-4.77-4.6-.95-9.09,2.02-10.03,6.62-.94,4.6,2.02,9.09,6.62,10.03,4.19,.86,7.22,4.59,7.22,8.87,0,5-4.06,9.06-9.06,9.06-2.99,0-5.79-1.48-7.48-3.95-2.65-3.87-7.95-4.86-11.82-2.2-3.87,2.65-4.86,7.95-2.2,11.82,4.87,7.1,12.9,11.33,21.5,11.33,14.37,0,26.06-11.69,26.06-26.06,0-1.97-.25-3.89-.67-5.76l27.1-32.91c2.98-3.62,2.47-8.98-1.16-11.96Z"/>
    <path class="cls-5" d="M688.37,174.88h0c40.84,0,74,33.16,74,74h-74v-74h0Z"/>
    <path class="cls-1" d="M510.37,174.88h178v74h-104c-40.84,0-74-33.16-74-74h0Z"/>
    <g>
      <circle class="cls-4" cx="645.37" cy="204.88" r="13"/>
      <circle class="cls-4" cx="664.37" cy="204.88" r="13"/>
      <circle cx="648.87" cy="204.38" r="6.5"/>
      <circle cx="660.87" cy="204.38" r="6.5"/>
    </g>
    <path class="cls-1" d="M514.34,182.86c0-.16,.02-.32,.02-.48,0-.34-.02-.67-.06-1.01,.02-2.74-1.13-5.48-3.38-7.37l-13.03-10.94c-4-3.36-10.02-2.83-13.38,1.17-2.08,2.48-2.67,5.73-1.87,8.65h-2.78c-5.22,0-9.5,4.27-9.5,9.5s4.28,9.5,9.5,9.5h3.11c-1.13,3.08-.65,6.66,1.58,9.35,3.33,4.02,9.35,4.59,13.38,1.25l13.1-10.85c2.66-2.2,3.8-5.58,3.31-8.78Z"/>
    <path class="cls-6" d="M611,190.81c0,5.07-4.11,9.19-9.19,9.19h-37.62c-5.07,0-9.19-4.11-9.19-9.19v-9.62c0-.83,.12-1.63,.33-2.4-.21-.78-.33-1.6-.33-2.45V94.66c0-5.34,4.33-9.66,9.66-9.66h2.34s0-17.47,0-17.47c0-5.82,4.71-10.53,10.53-10.53h2.94c2.03,0,3.92,.59,5.53,1.58v-2.09c0-6.35,5.15-11.5,11.5-11.5h2.01c6.35,0,11.5,5.15,11.5,11.5v120.01c0,.85-.1,1.68-.28,2.48,.17,.71,.28,1.44,.28,2.2v9.62Z"/>
    <path class="cls-2" d="M3914.19,210.34c-3.62-2.99-8.98-2.47-11.96,1.16l-23.65,28.72c-3.02-2.3-6.57-3.98-10.47-4.77-4.6-.95-9.09,2.02-10.03,6.62-.94,4.6,2.02,9.09,6.62,10.03,4.19,.86,7.22,4.59,7.22,8.87,0,5-4.06,9.06-9.06,9.06-2.99,0-5.79-1.48-7.48-3.95-2.65-3.87-7.95-4.86-11.82-2.2-3.87,2.65-4.86,7.95-2.2,11.82,4.87,7.1,12.9,11.33,21.5,11.33,14.37,0,26.06-11.69,26.06-26.06,0-1.97-.25-3.89-.67-5.76l27.1-32.91c2.98-3.62,2.47-8.98-1.16-11.96Z"/>
    <path class="cls-3" d="M3902.81,208.25c-3.62-2.99-8.98-2.47-11.96,1.16l-23.65,28.72c-3.02-2.3-6.57-3.98-10.47-4.77-4.6-.95-9.09,2.02-10.03,6.62-.94,4.6,2.02,9.09,6.62,10.03,4.19,.86,7.22,4.59,7.22,8.87,0,5-4.06,9.06-9.06,9.06-2.99,0-5.79-1.48-7.48-3.95-2.65-3.87-7.95-4.86-11.82-2.2-3.87,2.65-4.86,7.95-2.2,11.82,4.87,7.1,12.9,11.33,21.5,11.33,14.37,0,26.06-11.69,26.06-26.06,0-1.97-.25-3.89-.67-5.76l27.1-32.91c2.98-3.62,2.47-8.98-1.16-11.96Z"/>
    <path class="cls-5" d="M4053.91,173.31h0c40.84,0,74,33.16,74,74h-74v-74h0Z"/>
    <path class="cls-1" d="M3875.91,173.31h178v74h-104c-40.84,0-74-33.16-74-74h0Z"/>
    <g>
      <circle class="cls-4" cx="4010.91" cy="203.31" r="13"/>
      <circle class="cls-4" cx="4029.91" cy="203.31" r="13"/>
      <circle cx="4014.41" cy="202.81" r="6.5"/>
      <circle cx="4026.41" cy="202.81" r="6.5"/>
    </g>
    <path class="cls-1" d="M3879.89,181.29c0-.16,.02-.32,.02-.48,0-.34-.02-.67-.06-1.01,.02-2.74-1.13-5.48-3.38-7.37l-13.03-10.94c-4-3.36-10.02-2.83-13.38,1.17-2.08,2.48-2.67,5.73-1.87,8.65h-2.78c-5.22,0-9.5,4.27-9.5,9.5s4.28,9.5,9.5,9.5h3.11c-1.13,3.08-.65,6.66,1.58,9.35,3.33,4.02,9.35,4.59,13.38,1.25l13.1-10.85c2.66-2.2,3.8-5.58,3.31-8.78Z"/>
    <path class="cls-6" d="M3959.83,266h-4.65c-5.62,0-10.17-4.55-10.17-10.17v-2.93c-1.32,.7-2.82,1.1-4.42,1.1h-5.16c-5.2,0-9.42-4.22-9.42-9.42v-18.58s-3.84,0-3.84,0c-4.51,0-8.16-3.65-8.16-8.16v-55.69s0,0,0,0v-2.97c0-5.07,4.11-9.19,9.19-9.19h37.62c5.07,0,9.19,4.11,9.19,9.19v4.99s0,4.64,0,4.64v87.01c0,5.62-4.55,10.17-10.17,10.17Z"/>
    <path class="cls-2" d="M4327.82,213.11c-3.62-2.99-8.98-2.47-11.96,1.16l-23.65,28.72c-3.02-2.3-6.57-3.98-10.47-4.77-4.6-.95-9.09,2.02-10.03,6.62-.94,4.6,2.02,9.09,6.62,10.03,4.19,.86,7.22,4.59,7.22,8.87,0,5-4.06,9.06-9.06,9.06-2.99,0-5.79-1.48-7.48-3.95-2.65-3.87-7.95-4.86-11.82-2.2-3.87,2.65-4.86,7.95-2.2,11.82,4.87,7.1,12.9,11.33,21.5,11.33,14.37,0,26.06-11.69,26.06-26.06,0-1.97-.25-3.89-.67-5.76l27.1-32.91c2.98-3.62,2.47-8.98-1.16-11.96Z"/>
    <path class="cls-3" d="M4316.44,211.02c-3.62-2.99-8.98-2.47-11.96,1.16l-23.65,28.72c-3.02-2.3-6.57-3.98-10.47-4.77-4.6-.95-9.09,2.02-10.03,6.62-.94,4.6,2.02,9.09,6.62,10.03,4.19,.86,7.22,4.59,7.22,8.87,0,5-4.06,9.06-9.06,9.06-2.99,0-5.79-1.48-7.48-3.95-2.65-3.87-7.95-4.86-11.82-2.2-3.87,2.65-4.86,7.95-2.2,11.82,4.87,7.1,12.9,11.33,21.5,11.33,14.37,0,26.06-11.69,26.06-26.06,0-1.97-.25-3.89-.67-5.76l27.1-32.91c2.98-3.62,2.47-8.98-1.16-11.96Z"/>
    <path class="cls-5" d="M4467.54,176.08h0c40.84,0,74,33.16,74,74h-74v-74h0Z"/>
    <path class="cls-1" d="M4289.54,176.08h178v74h-104c-40.84,0-74-33.16-74-74h0Z"/>
    <g>
      <circle class="cls-4" cx="4424.54" cy="206.08" r="13"/>
      <circle class="cls-4" cx="4443.54" cy="206.08" r="13"/>
      <circle cx="4428.04" cy="205.58" r="6.5"/>
      <circle cx="4440.04" cy="205.58" r="6.5"/>
    </g>
    <path class="cls-1" d="M4293.51,184.06c0-.16,.02-.32,.02-.48,0-.34-.02-.67-.06-1.01,.02-2.74-1.13-5.48-3.38-7.37l-13.03-10.94c-4-3.36-10.02-2.83-13.38,1.17-2.08,2.48-2.67,5.73-1.87,8.65h-2.78c-5.22,0-9.5,4.27-9.5,9.5s4.28,9.5,9.5,9.5h3.11c-1.13,3.08-.65,6.66,1.58,9.35,3.33,4.02,9.35,4.59,13.38,1.25l13.1-10.85c2.66-2.2,3.8-5.58,3.31-8.78Z"/>
    <path class="cls-6" d="M4390.17,192.01c0,5.07-4.11,9.19-9.19,9.19h-37.62c-5.07,0-9.19-4.11-9.19-9.19v-9.62c0-.83,.12-1.63,.33-2.4-.21-.78-.33-1.6-.33-2.45V95.86c0-5.34,4.33-9.66,9.66-9.66h2.34s0-17.47,0-17.47c0-5.82,4.71-10.53,10.53-10.53h2.94c2.03,0,3.92,.59,5.53,1.58v-2.09c0-6.35,5.15-11.5,11.5-11.5h2.01c6.35,0,11.5,5.15,11.5,11.5v120.01c0,.85-.1,1.68-.28,2.48,.17,.71,.28,1.44,.28,2.2v9.62Z"/>
    <path class="cls-2" d="M4747.96,218.38c-3.62-2.99-8.98-2.47-11.96,1.16l-23.65,28.72c-3.02-2.3-6.57-3.98-10.47-4.77-4.6-.95-9.09,2.02-10.03,6.62-.94,4.6,2.02,9.09,6.62,10.03,4.19,.86,7.22,4.59,7.22,8.87,0,5-4.06,9.06-9.06,9.06-2.99,0-5.79-1.48-7.48-3.95-2.65-3.87-7.95-4.86-11.82-2.2-3.87,2.65-4.86,7.95-2.2,11.82,4.87,7.1,12.9,11.33,21.5,11.33,14.37,0,26.06-11.69,26.06-26.06,0-1.97-.25-3.89-.67-5.76l27.1-32.91c2.98-3.62,2.47-8.98-1.16-11.96Z"/>
    <path class="cls-3" d="M4736.58,216.3c-3.62-2.99-8.98-2.47-11.96,1.16l-23.65,28.72c-3.02-2.3-6.57-3.98-10.47-4.77-4.6-.95-9.09,2.02-10.03,6.62-.94,4.6,2.02,9.09,6.62,10.03,4.19,.86,7.22,4.59,7.22,8.87,0,5-4.06,9.06-9.06,9.06-2.99,0-5.79-1.48-7.48-3.95-2.65-3.87-7.95-4.86-11.82-2.2-3.87,2.65-4.86,7.95-2.2,11.82,4.87,7.1,12.9,11.33,21.5,11.33,14.37,0,26.06-11.69,26.06-26.06,0-1.97-.25-3.89-.67-5.76l27.1-32.91c2.98-3.62,2.47-8.98-1.16-11.96Z"/>
    <path class="cls-5" d="M4887.68,181.36h0c40.84,0,74,33.16,74,74h-74v-74h0Z"/>
    <path class="cls-1" d="M4709.68,181.36h178v74h-104c-40.84,0-74-33.16-74-74h0Z"/>
    <path class="cls-1" d="M4713.66,189.33c0-.16,.02-.32,.02-.48,0-.34-.02-.67-.06-1.01,.02-2.74-1.13-5.48-3.38-7.37l-13.03-10.94c-4-3.36-10.02-2.83-13.38,1.17-2.08,2.48-2.67,5.73-1.87,8.65h-2.78c-5.22,0-9.5,4.27-9.5,9.5s4.28,9.5,9.5,9.5h3.11c-1.13,3.08-.65,6.66,1.58,9.35,3.33,4.02,9.35,4.59,13.38,1.25l13.1-10.85c2.66-2.2,3.8-5.58,3.31-8.78Z"/>
    <path class="cls-6" d="M4810.32,197.29c0,5.07-4.11,9.19-9.19,9.19h-37.62c-5.07,0-9.19-4.11-9.19-9.19v-9.62c0-.83,.12-1.63,.33-2.4-.21-.78-.33-1.6-.33-2.45V101.13c0-5.34,4.33-9.66,9.66-9.66h2.34s0-17.47,0-17.47c0-5.82,4.71-10.53,10.53-10.53h2.94c2.03,0,3.92,.59,5.53,1.58v-2.09c0-6.35,5.15-11.5,11.5-11.5h2.01c6.35,0,11.5,5.15,11.5,11.5v120.01c0,.85-.1,1.68-.28,2.48,.17,.71,.28,1.44,.28,2.2v9.62Z"/>
    <line class="cls-7" x1="4841.5" y1="210.5" x2="4867.5" y2="210.5"/>
    <path class="cls-2" d="M5170,211.96c-3.62-2.99-8.98-2.47-11.96,1.16l-23.65,28.72c-3.02-2.3-6.57-3.98-10.47-4.77-4.6-.95-9.09,2.02-10.03,6.62-.94,4.6,2.02,9.09,6.62,10.03,4.19,.86,7.22,4.59,7.22,8.87,0,5-4.06,9.06-9.06,9.06-2.99,0-5.79-1.48-7.48-3.95-2.65-3.87-7.95-4.86-11.82-2.2-3.87,2.65-4.86,7.95-2.2,11.82,4.87,7.1,12.9,11.33,21.5,11.33,14.37,0,26.06-11.69,26.06-26.06,0-1.97-.25-3.89-.67-5.76l27.1-32.91c2.98-3.62,2.47-8.98-1.16-11.96Z"/>
    <path class="cls-3" d="M5158.62,209.87c-3.62-2.99-8.98-2.47-11.96,1.16l-23.65,28.72c-3.02-2.3-6.57-3.98-10.47-4.77-4.6-.95-9.09,2.02-10.03,6.62-.94,4.6,2.02,9.09,6.62,10.03,4.19,.86,7.22,4.59,7.22,8.87,0,5-4.06,9.06-9.06,9.06-2.99,0-5.79-1.48-7.48-3.95-2.65-3.87-7.95-4.86-11.82-2.2-3.87,2.65-4.86,7.95-2.2,11.82,4.87,7.1,12.9,11.33,21.5,11.33,14.37,0,26.06-11.69,26.06-26.06,0-1.97-.25-3.89-.67-5.76l27.1-32.91c2.98-3.62,2.47-8.98-1.16-11.96Z"/>
    <path class="cls-5" d="M5309.72,174.93h0c40.84,0,74,33.16,74,74h-74v-74h0Z"/>
    <path class="cls-1" d="M5131.72,174.93h178v74h-104c-40.84,0-74-33.16-74-74h0Z"/>
    <path class="cls-6" d="M5228.72,208.12c0-5.07-4.11-9.19-9.19-9.19h-37.62c-5.07,0-9.19,4.11-9.19,9.19v9.62c0,.83,.12,1.63,.33,2.4-.21,.78-.33,1.6-.33,2.45v81.68c0,5.34,4.33,9.66,9.66,9.66h2.34v17.47c0,5.82,4.71,10.53,10.53,10.53h2.94c2.03,0,3.92-.59,5.53-1.58v2.09c0,6.35,5.15,11.5,11.5,11.5h2.01c6.35,0,11.5-5.15,11.5-11.5v-120.01c0-.85-.1-1.68-.28-2.48,.17-.71,.28-1.44,.28-2.2v-9.62Z"/>
    <g>
      <circle class="cls-4" cx="5266.72" cy="204.93" r="13"/>
      <circle class="cls-4" cx="5285.72" cy="204.93" r="13"/>
      <circle cx="5270.22" cy="204.43" r="6.5"/>
      <circle cx="5282.22" cy="204.43" r="6.5"/>
    </g>
    <path class="cls-1" d="M5135.69,182.91c0-.16,.02-.32,.02-.48,0-.34-.02-.67-.06-1.01,.02-2.74-1.13-5.48-3.38-7.37l-13.03-10.94c-4-3.36-10.02-2.83-13.38,1.17-2.08,2.48-2.67,5.73-1.87,8.65h-2.78c-5.22,0-9.5,4.27-9.5,9.5s4.28,9.5,9.5,9.5h3.11c-1.13,3.08-.65,6.66,1.58,9.35,3.33,4.02,9.35,4.59,13.38,1.25l13.1-10.85c2.66-2.2,3.8-5.58,3.31-8.78Z"/>
    <path class="cls-2" d="M5588,209.96c-3.62-2.99-8.98-2.47-11.96,1.16l-23.65,28.72c-3.02-2.3-6.57-3.98-10.47-4.77-4.6-.95-9.09,2.02-10.03,6.62-.94,4.6,2.02,9.09,6.62,10.03,4.19,.86,7.22,4.59,7.22,8.87,0,5-4.06,9.06-9.06,9.06-2.99,0-5.79-1.48-7.48-3.95-2.65-3.87-7.95-4.86-11.82-2.2-3.87,2.65-4.86,7.95-2.2,11.82,4.87,7.1,12.9,11.33,21.5,11.33,14.37,0,26.06-11.69,26.06-26.06,0-1.97-.25-3.89-.67-5.76l27.1-32.91c2.98-3.62,2.47-8.98-1.16-11.96Z"/>
    <path class="cls-3" d="M5576.62,207.87c-3.62-2.99-8.98-2.47-11.96,1.16l-23.65,28.72c-3.02-2.3-6.57-3.98-10.47-4.77-4.6-.95-9.09,2.02-10.03,6.62-.94,4.6,2.02,9.09,6.62,10.03,4.19,.86,7.22,4.59,7.22,8.87,0,5-4.06,9.06-9.06,9.06-2.99,0-5.79-1.48-7.48-3.95-2.65-3.87-7.95-4.86-11.82-2.2-3.87,2.65-4.86,7.95-2.2,11.82,4.87,7.1,12.9,11.33,21.5,11.33,14.37,0,26.06-11.69,26.06-26.06,0-1.97-.25-3.89-.67-5.76l27.1-32.91c2.98-3.62,2.47-8.98-1.16-11.96Z"/>
    <path class="cls-5" d="M5727.72,172.93h0c40.84,0,74,33.16,74,74h-74v-74h0Z"/>
    <path class="cls-1" d="M5549.72,172.93h178v74h-104c-40.84,0-74-33.16-74-74h0Z"/>
    <g>
      <circle class="cls-4" cx="5684.72" cy="202.93" r="13"/>
      <circle class="cls-4" cx="5703.72" cy="202.93" r="13"/>
      <circle cx="5688.22" cy="202.43" r="6.5"/>
      <circle cx="5700.22" cy="202.43" r="6.5"/>
    </g>
    <path class="cls-1" d="M5553.69,180.91c0-.16,.02-.32,.02-.48,0-.34-.02-.67-.06-1.01,.02-2.74-1.13-5.48-3.38-7.37l-13.03-10.94c-4-3.36-10.02-2.83-13.38,1.17-2.08,2.48-2.67,5.73-1.87,8.65h-2.78c-5.22,0-9.5,4.27-9.5,9.5s4.28,9.5,9.5,9.5h3.11c-1.13,3.08-.65,6.66,1.58,9.35,3.33,4.02,9.35,4.59,13.38,1.25l13.1-10.85c2.66-2.2,3.8-5.58,3.31-8.78Z"/>
    <path class="cls-6" d="M5650.35,188.86c0,5.07-4.11,9.19-9.19,9.19h-37.62c-5.07,0-9.19-4.11-9.19-9.19v-9.62c0-.83,.12-1.63,.33-2.4-.21-.78-.33-1.6-.33-2.45V92.71c0-5.34,4.33-9.66,9.66-9.66h2.34s0-17.47,0-17.47c0-5.82,4.71-10.53,10.53-10.53h2.94c2.03,0,3.92,.59,5.53,1.58v-2.09c0-6.35,5.15-11.5,11.5-11.5h2.01c6.35,0,11.5,5.15,11.5,11.5v120.01c0,.85-.1,1.68-.28,2.48,.17,.71,.28,1.44,.28,2.2v9.62Z"/>
  </g>
</svg>